<svg width="200" height="200" viewBox="0 0 64 64" xmlns="http://www.w3.org/2000/svg">
  <!-- Background -->
  <circle cx="32" cy="32" r="30" fill="#25D366"/>

  <!-- WhatsApp Phone Icon -->
  <path fill="#FFFFFF" d="M47.2,41.5c-1.3-0.7-7.5-3.7-8.6-4.1c-1.1-0.4-1.9-0.7-2.7,0.7c-0.8,1.4-3.1,4.1-3.8,4.9
    c-0.7,0.8-1.4,0.9-2.7,0.3c-1.3-0.7-5.6-2.1-10.7-6.6c-4-3.6-6.7-8.1-7.5-9.4c-0.8-1.3-0.1-2,0.6-2.6c0.6-0.6,1.3-1.4,2-2.1
    c0.6-0.7,0.8-1.1,1.2-1.9c0.4-0.8,0.2-1.4-0.1-2.1c-0.3-0.7-2.7-6.5-3.7-8.9c-1-2.4-2-2.1-2.7-2.2c-0.7-0.1-1.5-0.1-2.3-0.1
    c-0.8,0-2.1,0.3-3.2,1.5C7.6,11.2,4,17.2,4,24.5c0,7.3,5.3,14.3,6,15.3c0.7,1,10.5,16,25.6,21.1c3.6,1.2,6.5,1.9,8.7,2.4
    c3.7,0.8,7,0.7,9.6,0.4c2.9-0.3,8.8-3.6,10.1-7.1c1.2-3.5,1.2-6.5,0.8-7.1C52.3,44.1,48.5,42.2,47.2,41.5z"/>

  <!-- Settings Gear Icon (top-right corner) -->
  <g transform="translate(48, 10) scale(0.8)">
    <circle cx="0" cy="0" r="6" fill="#075E54"/>
    <path d="M0,-5 L0,-7 M0,5 L0,7 M-5,0 L-7,0 M5,0 L7,0 M-3.5,-3.5 L-5,-5 M3.5,3.5 L5,5 M-3.5,3.5 L-5,5 M3.5,-3.5 L5,-5" 
          stroke="#FFFFFF" stroke-width="1.2"/>
    <circle cx="0" cy="0" r="2" fill="#FFFFFF"/>
  </g>
</svg>

