<svg id="Capa_1" enable-background="new 0 0 512 512" height="512" viewBox="0 0 512 512" width="512" xmlns="http://www.w3.org/2000/svg"><g><g><g><g><g><path d="m225.918 105.104c-94.033 0-170.542 75.031-172.923 168.49-.084 3.197.549 220.215.549 220.215l74.992-72.749c110.047 78.628 273.297-6.432 270.361-142.979.002-95.53-77.444-172.977-172.979-172.977z" fill="#6de89a"/></g><g><path d="m398.897 278.081c0-4.543-.177-9.045-.521-13.5-10.376 126.326-157.333 210.93-264.353 120.317l-58.414 52.594c-.181-62.629-.458-161.715-.401-163.898 2.287-89.748 72.935-162.49 161.813-168.125-97.618-6.632-181.936 70.797-184.025 168.125-.084 3.197.549 220.215.549 220.215l74.992-72.749c110.045 78.628 273.296-6.432 270.36-142.979z" fill="#2ce079"/></g><g><path d="m361.078 8.404c-22.65-.23-43.018 7.87-60.38 20.794-72.618 54.955-32.082 176.39 60.383 175.29 129.303-3.288 129.287-192.813-.003-196.084z" fill="#d3e0ef"/></g><g><path d="m377.18 188.389c-83.63.995-124.771-98.242-78.146-157.876-70.295 55.546-29.695 175.067 62.047 173.975 34.951-.889 60.448-15.388 76.502-36.135-15.321 11.828-35.452 19.402-60.403 20.036z" fill="#9bb6f1"/></g><g><g><g><path d="m138.892 173.192-9.737-11.41c4.107-3.506 8.629-6.764 12.51-9.488l8.618 12.277c-3.595 2.524-7.759 5.521-11.391 8.621z" fill="#fff"/></g><g><path d="m162.315 157.358-6.972-13.281c5.121-2.688 9.8-4.865 14.304-6.656l5.543 13.938c-4.011 1.595-8.223 3.558-12.875 5.999z" fill="#fff"/></g></g></g><g><path d="m234.921 314.563-42.731-42.731c-8.657-8.658-8.657-22.694 0-31.352l16.15-16.15-31.921-31.921-21.442 21.442c-23.311 23.311-23.311 61.107 0 84.418l53.507 53.507c23.311 23.311 61.107 23.311 84.418 0l21.442-21.442-31.921-31.921-16.15 16.15c-8.658 8.657-22.694 8.657-31.352 0z" fill="#fbf2e2"/></g><g><path d="m297.974 313.965-24.202 24.202c-13.006 13.006-34.093 13.006-47.099 0-.312-.332-34.576-34.562-55.922-55.912-13.294-13.297-14.231-34.5-2.25-48.991 7.341-8.878 16.315-16.82 24.087-24.685l-16.17-16.17c-17.219 17.443-37.91 33.158-38.772 59.618-1.715 29.558 14.143 43.628 33.5 62.412-.001-.001-.002-.002-.002-.002l37.34 37.34c23.311 23.311 61.107 23.311 84.418 0l21.442-21.442z" fill="#f7e0ba"/></g></g></g></g><g><path d="m362.577 370.986 12.415 8.492c2.914-4.261 5.675-8.696 8.208-13.185l-13.1-7.392c-2.32 4.114-4.852 8.18-7.523 12.085z"/><path d="m225.777 443.228c-35.433.102-69.441-11.344-98.022-31.977l-67.587 65.301v-70.329h-15.042v105.777l84.363-81.509c28.814 18.194 61.97 27.779 96.288 27.779 54.342 0 105.288-24.128 139.776-66.198l-11.633-9.536c-31.62 38.57-78.326 60.692-128.143 60.692z"/><path d="m466.874 105.837c0-58.359-47.478-105.837-105.837-105.837-17.82 0-35.443 4.514-50.962 13.057l7.253 13.177c13.304-7.322 28.418-11.192 43.709-11.192 50.064 0 90.794 40.73 90.794 90.795 0 50.064-40.73 90.794-90.794 90.794s-90.794-40.73-90.794-90.794c0-28.114 12.714-54.19 34.881-71.541l-9.271-11.845c-24.134 18.89-38.649 46.656-40.457 76.945-9.754-1.607-19.68-2.426-29.62-2.426-99.611 0-180.65 81.039-180.65 180.65v113.562h15.042v-113.563c0-91.317 74.292-165.608 165.609-165.608 10.016 0 20.012.91 29.799 2.685 4.392 59.896 61.523 105.545 121.611 95.746 9.419 21.159 14.199 43.728 14.199 67.177 0 24.129-5.071 47.387-15.072 69.127l13.665 6.287c10.915-23.726 16.448-49.099 16.448-75.414 0-24.586-4.823-48.29-14.328-70.601 43.248-13.303 74.775-53.628 74.775-101.181z"/><path d="m323.433 98.316h15.042v15.042h-15.042z"/><path d="m353.516 98.316h15.042v15.042h-15.042z"/><path d="m383.6 98.316h15.042v15.042h-15.042z"/><path d="m129.309 255.865c0 17.997 7.009 34.918 19.735 47.645l53.656 53.657c13.136 13.135 30.39 19.702 47.644 19.702s34.509-6.567 47.644-19.703l26.82-26.82-42.646-42.646-21.512 21.512c-5.736 5.737-15.068 5.735-20.803 0l-42.85-42.85c-5.735-5.735-5.735-15.067 0-20.802l21.513-21.513-42.647-42.646-26.82 26.819c-12.725 12.727-19.734 29.648-19.734 47.645zm46.555-53.191 21.374 21.374-10.877 10.877c-11.599 11.601-11.599 30.475 0 42.075l42.85 42.85c11.599 11.599 30.474 11.599 42.075 0l10.876-10.877 21.374 21.374-16.184 16.184c-20.407 20.405-53.61 20.407-74.017 0l-53.656-53.657c-9.885-9.885-15.329-23.028-15.329-37.008s5.444-27.123 15.329-37.008z"/></g></g></svg>

